<mxfile host="app.diagrams.net" modified="2022-09-21T09:36:10.669Z" agent="5.0 (Macintosh; Intel Mac OS X 10_15_7) AppleWebKit/537.36 (KHTML, like Gecko) Chrome/105.0.0.0 Safari/537.36" etag="rAzuvVoQCUuSrsa3p_sw" version="20.3.3" type="github" pages="4">
  <diagram id="6I0OCvxSQrVGMHxT2VVA" name="Page-1">
    <mxGraphModel dx="1666" dy="769" grid="1" gridSize="10" guides="1" tooltips="1" connect="1" arrows="1" fold="1" page="1" pageScale="1" pageWidth="850" pageHeight="1100" math="0" shadow="0">
      <root>
        <mxCell id="0" />
        <mxCell id="1" parent="0" />
        <mxCell id="dKdSaXE48SgPbhcamS2K-30" value="" style="whiteSpace=wrap;html=1;strokeColor=none;strokeWidth=1;fillColor=#f5f5f5;fontSize=14;" parent="1" vertex="1">
          <mxGeometry x="194" y="670" width="1075" height="300" as="geometry" />
        </mxCell>
        <mxCell id="dKdSaXE48SgPbhcamS2K-31" value="" style="whiteSpace=wrap;html=1;strokeColor=none;strokeWidth=1;fillColor=#f5f5f5;fontSize=14;" parent="1" vertex="1">
          <mxGeometry x="194" y="500" width="1075" height="160" as="geometry" />
        </mxCell>
        <mxCell id="dKdSaXE48SgPbhcamS2K-32" value="" style="whiteSpace=wrap;html=1;strokeColor=none;strokeWidth=1;fillColor=#f5f5f5;fontSize=14;" parent="1" vertex="1">
          <mxGeometry x="184" y="330" width="1075" height="140" as="geometry" />
        </mxCell>
        <mxCell id="dKdSaXE48SgPbhcamS2K-33" value="Node" style="html=1;whiteSpace=wrap;fillColor=#AFFFAF;shape=mxgraph.archimate3.application;appType=node;archiType=square;fontSize=14;verticalAlign=top;" parent="1" vertex="1">
          <mxGeometry x="390" y="815" width="480" height="145" as="geometry" />
        </mxCell>
        <mxCell id="dKdSaXE48SgPbhcamS2K-34" style="edgeStyle=elbowEdgeStyle;rounded=1;elbow=vertical;html=1;startSize=10;endArrow=block;endFill=0;endSize=10;jettySize=auto;orthogonalLoop=1;strokeColor=#808080;fontSize=14;dashed=1;" parent="1" source="dKdSaXE48SgPbhcamS2K-35" target="dKdSaXE48SgPbhcamS2K-40" edge="1">
          <mxGeometry relative="1" as="geometry" />
        </mxCell>
        <mxCell id="dKdSaXE48SgPbhcamS2K-35" value="&lt;div&gt;&lt;br&gt;&lt;/div&gt;System&lt;div&gt;Software&lt;/div&gt;" style="html=1;whiteSpace=wrap;fillColor=#AFFFAF;shape=mxgraph.archimate3.tech;techType=sysSw;fontSize=14;" parent="1" vertex="1">
          <mxGeometry x="444" y="860" width="140" height="60" as="geometry" />
        </mxCell>
        <mxCell id="dKdSaXE48SgPbhcamS2K-36" style="edgeStyle=elbowEdgeStyle;rounded=1;elbow=vertical;html=1;startSize=10;endArrow=block;endFill=0;endSize=10;jettySize=auto;orthogonalLoop=1;strokeColor=#808080;fontSize=14;dashed=1;" parent="1" source="dKdSaXE48SgPbhcamS2K-37" target="dKdSaXE48SgPbhcamS2K-45" edge="1">
          <mxGeometry relative="1" as="geometry" />
        </mxCell>
        <mxCell id="dKdSaXE48SgPbhcamS2K-37" value="&lt;div&gt;&lt;br&gt;&lt;/div&gt;&lt;div&gt;&lt;span&gt;System&lt;/span&gt;&lt;div&gt;Software&lt;/div&gt;&lt;/div&gt;" style="html=1;whiteSpace=wrap;fillColor=#AFFFAF;shape=mxgraph.archimate3.tech;techType=sysSw;fontSize=14;" parent="1" vertex="1">
          <mxGeometry x="684" y="860" width="140" height="60" as="geometry" />
        </mxCell>
        <mxCell id="dKdSaXE48SgPbhcamS2K-38" style="edgeStyle=elbowEdgeStyle;rounded=1;elbow=vertical;html=1;startSize=10;endArrow=open;endFill=0;endSize=10;jettySize=auto;orthogonalLoop=1;strokeColor=#808080;fontSize=14;entryX=0.25;entryY=1;" parent="1" source="dKdSaXE48SgPbhcamS2K-40" target="dKdSaXE48SgPbhcamS2K-49" edge="1">
          <mxGeometry relative="1" as="geometry" />
        </mxCell>
        <mxCell id="dKdSaXE48SgPbhcamS2K-39" style="edgeStyle=elbowEdgeStyle;rounded=1;elbow=vertical;html=1;startSize=10;endArrow=open;endFill=0;endSize=10;jettySize=auto;orthogonalLoop=1;strokeColor=#808080;fontSize=14;entryX=0.25;entryY=1;exitX=0.265;exitY=0.007;exitPerimeter=0;" parent="1" source="dKdSaXE48SgPbhcamS2K-40" target="dKdSaXE48SgPbhcamS2K-47" edge="1">
          <mxGeometry relative="1" as="geometry">
            <Array as="points">
              <mxPoint x="422" y="670" />
            </Array>
          </mxGeometry>
        </mxCell>
        <mxCell id="dKdSaXE48SgPbhcamS2K-40" value="Service" style="html=1;whiteSpace=wrap;fillColor=#AFFFAF;shape=mxgraph.archimate3.service;fontSize=14;" parent="1" vertex="1">
          <mxGeometry x="439" y="680" width="150" height="50" as="geometry" />
        </mxCell>
        <mxCell id="dKdSaXE48SgPbhcamS2K-41" style="edgeStyle=elbowEdgeStyle;rounded=1;elbow=vertical;html=1;startSize=10;endArrow=open;endFill=0;endSize=10;jettySize=auto;orthogonalLoop=1;strokeColor=#808080;fontSize=14;" parent="1" source="dKdSaXE48SgPbhcamS2K-45" target="dKdSaXE48SgPbhcamS2K-53" edge="1">
          <mxGeometry relative="1" as="geometry">
            <Array as="points">
              <mxPoint x="909" y="700" />
            </Array>
          </mxGeometry>
        </mxCell>
        <mxCell id="dKdSaXE48SgPbhcamS2K-42" style="edgeStyle=elbowEdgeStyle;rounded=1;elbow=vertical;html=1;startSize=10;endArrow=open;endFill=0;endSize=10;jettySize=auto;orthogonalLoop=1;strokeColor=#808080;fontSize=14;entryX=0.5;entryY=1;exitX=0.769;exitY=0.025;exitPerimeter=0;" parent="1" source="dKdSaXE48SgPbhcamS2K-45" target="dKdSaXE48SgPbhcamS2K-51" edge="1">
          <mxGeometry relative="1" as="geometry">
            <Array as="points">
              <mxPoint x="809" y="650" />
            </Array>
          </mxGeometry>
        </mxCell>
        <mxCell id="dKdSaXE48SgPbhcamS2K-43" style="edgeStyle=elbowEdgeStyle;rounded=1;elbow=vertical;html=1;startSize=10;endArrow=open;endFill=0;endSize=10;jettySize=auto;orthogonalLoop=1;strokeColor=#808080;fontSize=14;entryX=0.5;entryY=1;exitX=0.468;exitY=0.025;exitPerimeter=0;" parent="1" source="dKdSaXE48SgPbhcamS2K-45" target="dKdSaXE48SgPbhcamS2K-49" edge="1">
          <mxGeometry relative="1" as="geometry">
            <Array as="points">
              <mxPoint x="699" y="620" />
            </Array>
          </mxGeometry>
        </mxCell>
        <mxCell id="dKdSaXE48SgPbhcamS2K-44" style="edgeStyle=elbowEdgeStyle;rounded=1;elbow=vertical;html=1;startSize=10;endArrow=open;endFill=0;endSize=10;jettySize=auto;orthogonalLoop=1;strokeColor=#808080;fontSize=14;exitX=0.251;exitY=0.002;exitPerimeter=0;" parent="1" source="dKdSaXE48SgPbhcamS2K-45" target="dKdSaXE48SgPbhcamS2K-47" edge="1">
          <mxGeometry relative="1" as="geometry">
            <Array as="points">
              <mxPoint x="589" y="650" />
            </Array>
          </mxGeometry>
        </mxCell>
        <mxCell id="dKdSaXE48SgPbhcamS2K-45" value="Service" style="html=1;whiteSpace=wrap;fillColor=#AFFFAF;shape=mxgraph.archimate3.service;fontSize=14;" parent="1" vertex="1">
          <mxGeometry x="679" y="680" width="150" height="50" as="geometry" />
        </mxCell>
        <mxCell id="dKdSaXE48SgPbhcamS2K-46" style="edgeStyle=elbowEdgeStyle;rounded=1;elbow=vertical;html=1;startSize=10;endArrow=open;endFill=0;endSize=10;jettySize=auto;orthogonalLoop=1;strokeColor=#808080;fontSize=14;" parent="1" source="dKdSaXE48SgPbhcamS2K-47" target="dKdSaXE48SgPbhcamS2K-54" edge="1">
          <mxGeometry relative="1" as="geometry" />
        </mxCell>
        <mxCell id="dKdSaXE48SgPbhcamS2K-47" value="Module" style="shape=component;align=center;fillColor=#99ffff;gradientColor=none;fontSize=14;" parent="1" vertex="1">
          <mxGeometry x="329" y="510" width="185" height="80" as="geometry" />
        </mxCell>
        <mxCell id="dKdSaXE48SgPbhcamS2K-48" style="edgeStyle=elbowEdgeStyle;rounded=1;elbow=vertical;html=1;startSize=10;endArrow=open;endFill=0;endSize=10;jettySize=auto;orthogonalLoop=1;strokeColor=#808080;fontSize=14;" parent="1" source="dKdSaXE48SgPbhcamS2K-49" target="dKdSaXE48SgPbhcamS2K-55" edge="1">
          <mxGeometry relative="1" as="geometry" />
        </mxCell>
        <mxCell id="dKdSaXE48SgPbhcamS2K-49" value="Module" style="shape=component;align=center;fillColor=#99ffff;gradientColor=none;fontSize=14;" parent="1" vertex="1">
          <mxGeometry x="537" y="510" width="185" height="80" as="geometry" />
        </mxCell>
        <mxCell id="dKdSaXE48SgPbhcamS2K-50" style="edgeStyle=elbowEdgeStyle;rounded=1;elbow=vertical;html=1;startSize=10;endArrow=open;endFill=0;endSize=10;jettySize=auto;orthogonalLoop=1;strokeColor=#808080;fontSize=14;" parent="1" source="dKdSaXE48SgPbhcamS2K-51" target="dKdSaXE48SgPbhcamS2K-56" edge="1">
          <mxGeometry relative="1" as="geometry" />
        </mxCell>
        <mxCell id="dKdSaXE48SgPbhcamS2K-51" value="Module" style="shape=component;align=center;fillColor=#99ffff;gradientColor=none;fontSize=14;" parent="1" vertex="1">
          <mxGeometry x="761.5" y="510" width="185" height="80" as="geometry" />
        </mxCell>
        <mxCell id="dKdSaXE48SgPbhcamS2K-52" style="edgeStyle=elbowEdgeStyle;rounded=1;elbow=vertical;html=1;startSize=10;endArrow=open;endFill=0;endSize=10;jettySize=auto;orthogonalLoop=1;strokeColor=#808080;fontSize=14;" parent="1" source="dKdSaXE48SgPbhcamS2K-53" target="dKdSaXE48SgPbhcamS2K-57" edge="1">
          <mxGeometry relative="1" as="geometry" />
        </mxCell>
        <mxCell id="dKdSaXE48SgPbhcamS2K-53" value="Module" style="shape=component;align=center;fillColor=#99ffff;gradientColor=none;fontSize=14;" parent="1" vertex="1">
          <mxGeometry x="969" y="510" width="185" height="80" as="geometry" />
        </mxCell>
        <mxCell id="dKdSaXE48SgPbhcamS2K-54" value="Function" style="html=1;whiteSpace=wrap;fillColor=#ffff99;shape=mxgraph.archimate3.application;appType=func;archiType=rounded;fontSize=14;" parent="1" vertex="1">
          <mxGeometry x="346.5" y="360" width="150" height="75" as="geometry" />
        </mxCell>
        <mxCell id="dKdSaXE48SgPbhcamS2K-55" value="Collaboration" style="html=1;whiteSpace=wrap;fillColor=#ffff99;shape=mxgraph.archimate3.application;appType=collab;archiType=square;fontSize=14;" parent="1" vertex="1">
          <mxGeometry x="554.5" y="360" width="150" height="75" as="geometry" />
        </mxCell>
        <mxCell id="dKdSaXE48SgPbhcamS2K-56" value="Application Event" style="html=1;whiteSpace=wrap;fillColor=#ffff99;shape=mxgraph.archimate3.application;appType=event;archiType=rounded;fontSize=14;" parent="1" vertex="1">
          <mxGeometry x="779" y="360" width="150" height="75" as="geometry" />
        </mxCell>
        <mxCell id="dKdSaXE48SgPbhcamS2K-57" value="Process" style="html=1;whiteSpace=wrap;fillColor=#ffff99;shape=mxgraph.archimate3.application;appType=proc;archiType=rounded;fontSize=14;" parent="1" vertex="1">
          <mxGeometry x="986.5" y="360" width="150" height="75" as="geometry" />
        </mxCell>
        <mxCell id="dKdSaXE48SgPbhcamS2K-58" value="Technology" style="text;html=1;strokeColor=none;fillColor=none;align=center;verticalAlign=middle;whiteSpace=wrap;fontSize=14;" parent="1" vertex="1">
          <mxGeometry x="1269" y="751" width="240" height="20" as="geometry" />
        </mxCell>
        <mxCell id="dKdSaXE48SgPbhcamS2K-59" value="Application" style="text;html=1;strokeColor=none;fillColor=none;align=center;verticalAlign=middle;whiteSpace=wrap;fontSize=14;" parent="1" vertex="1">
          <mxGeometry x="1269" y="541" width="240" height="20" as="geometry" />
        </mxCell>
        <mxCell id="dKdSaXE48SgPbhcamS2K-60" value="Business" style="text;html=1;strokeColor=none;fillColor=none;align=center;verticalAlign=middle;whiteSpace=wrap;fontSize=14;" parent="1" vertex="1">
          <mxGeometry x="1259" y="389" width="240" height="20" as="geometry" />
        </mxCell>
        <mxCell id="dKdSaXE48SgPbhcamS2K-61" style="edgeStyle=elbowEdgeStyle;rounded=1;elbow=vertical;html=1;dashed=1;startSize=10;endArrow=block;endFill=0;endSize=10;jettySize=auto;orthogonalLoop=1;strokeColor=#808080;fontSize=14;" parent="1" source="dKdSaXE48SgPbhcamS2K-62" target="dKdSaXE48SgPbhcamS2K-54" edge="1">
          <mxGeometry relative="1" as="geometry" />
        </mxCell>
        <mxCell id="dKdSaXE48SgPbhcamS2K-62" value="" style="html=1;whiteSpace=wrap;fillColor=#ffff99;shape=mxgraph.archimate3.actor;fontSize=14;" parent="1" vertex="1">
          <mxGeometry x="219" y="350" width="50" height="95" as="geometry" />
        </mxCell>
        <mxCell id="dKdSaXE48SgPbhcamS2K-63" value="Title" style="text;strokeColor=none;fillColor=none;html=1;fontSize=24;fontStyle=1;verticalAlign=middle;align=center;" parent="1" vertex="1">
          <mxGeometry x="50" y="70" width="1590" height="40" as="geometry" />
        </mxCell>
      </root>
    </mxGraphModel>
  </diagram>
  <diagram id="lbukrBhSVeW8FZef-kJ1" name="第 2 页">
    <mxGraphModel dx="1186" dy="519" grid="1" gridSize="10" guides="1" tooltips="1" connect="1" arrows="1" fold="1" page="1" pageScale="1" pageWidth="827" pageHeight="1169" math="0" shadow="0">
      <root>
        <mxCell id="0" />
        <mxCell id="1" parent="0" />
        <mxCell id="a6-csXQEDT_WiFzlH9FD-1" value="用户服务" style="rounded=0;whiteSpace=wrap;html=1;fillColor=#FF6666;" parent="1" vertex="1">
          <mxGeometry x="180" y="380" width="100" height="50" as="geometry" />
        </mxCell>
        <mxCell id="a6-csXQEDT_WiFzlH9FD-2" value="" style="endArrow=none;dashed=1;html=1;rounded=0;" parent="1" edge="1">
          <mxGeometry width="50" height="50" relative="1" as="geometry">
            <mxPoint x="170" y="430" as="sourcePoint" />
            <mxPoint x="170" y="90" as="targetPoint" />
          </mxGeometry>
        </mxCell>
        <mxCell id="a6-csXQEDT_WiFzlH9FD-3" value="配置服务" style="rounded=0;whiteSpace=wrap;html=1;fillColor=#FF6666;" parent="1" vertex="1">
          <mxGeometry x="290" y="380" width="100" height="50" as="geometry" />
        </mxCell>
        <mxCell id="a6-csXQEDT_WiFzlH9FD-4" value="流程服务" style="rounded=0;whiteSpace=wrap;html=1;" parent="1" vertex="1">
          <mxGeometry x="400" y="380" width="100" height="50" as="geometry" />
        </mxCell>
        <mxCell id="a6-csXQEDT_WiFzlH9FD-5" value="Mysql" style="shape=cylinder3;whiteSpace=wrap;html=1;boundedLbl=1;backgroundOutline=1;size=15;" parent="1" vertex="1">
          <mxGeometry x="180" y="470" width="60" height="60" as="geometry" />
        </mxCell>
        <mxCell id="a6-csXQEDT_WiFzlH9FD-6" value="达梦" style="shape=cylinder3;whiteSpace=wrap;html=1;boundedLbl=1;backgroundOutline=1;size=15;" parent="1" vertex="1">
          <mxGeometry x="280" y="470" width="60" height="60" as="geometry" />
        </mxCell>
        <mxCell id="a6-csXQEDT_WiFzlH9FD-7" value="PG" style="shape=cylinder3;whiteSpace=wrap;html=1;boundedLbl=1;backgroundOutline=1;size=15;" parent="1" vertex="1">
          <mxGeometry x="370" y="470" width="60" height="60" as="geometry" />
        </mxCell>
        <mxCell id="a6-csXQEDT_WiFzlH9FD-8" value="Kafka" style="shape=cylinder3;whiteSpace=wrap;html=1;boundedLbl=1;backgroundOutline=1;size=15;rotation=90;" parent="1" vertex="1">
          <mxGeometry x="562" y="470" width="40" height="70" as="geometry" />
        </mxCell>
        <mxCell id="a6-csXQEDT_WiFzlH9FD-9" value="Redis" style="shape=cylinder3;whiteSpace=wrap;html=1;boundedLbl=1;backgroundOutline=1;size=15;" parent="1" vertex="1">
          <mxGeometry x="460" y="470" width="60" height="60" as="geometry" />
        </mxCell>
        <mxCell id="a6-csXQEDT_WiFzlH9FD-11" value="" style="endArrow=none;dashed=1;html=1;rounded=0;" parent="1" edge="1">
          <mxGeometry width="50" height="50" relative="1" as="geometry">
            <mxPoint x="120" y="450" as="sourcePoint" />
            <mxPoint x="980" y="450" as="targetPoint" />
          </mxGeometry>
        </mxCell>
        <mxCell id="a6-csXQEDT_WiFzlH9FD-12" value="日志服务" style="rounded=0;whiteSpace=wrap;html=1;fillColor=#FF6666;" parent="1" vertex="1">
          <mxGeometry x="510" y="380" width="100" height="50" as="geometry" />
        </mxCell>
        <mxCell id="a6-csXQEDT_WiFzlH9FD-13" value="缓存" style="rounded=0;whiteSpace=wrap;html=1;" parent="1" vertex="1">
          <mxGeometry x="620" y="380" width="100" height="50" as="geometry" />
        </mxCell>
        <mxCell id="a6-csXQEDT_WiFzlH9FD-14" value="图片服务" style="rounded=0;whiteSpace=wrap;html=1;" parent="1" vertex="1">
          <mxGeometry x="730" y="380" width="100" height="50" as="geometry" />
        </mxCell>
        <mxCell id="a6-csXQEDT_WiFzlH9FD-15" value="OSS" style="rounded=0;whiteSpace=wrap;html=1;" parent="1" vertex="1">
          <mxGeometry x="840" y="380" width="100" height="50" as="geometry" />
        </mxCell>
        <mxCell id="a6-csXQEDT_WiFzlH9FD-16" value="文件存储" style="shape=cylinder3;whiteSpace=wrap;html=1;boundedLbl=1;backgroundOutline=1;size=15;" parent="1" vertex="1">
          <mxGeometry x="670" y="470" width="60" height="60" as="geometry" />
        </mxCell>
        <mxCell id="a6-csXQEDT_WiFzlH9FD-17" value="" style="endArrow=none;dashed=1;html=1;rounded=0;" parent="1" edge="1">
          <mxGeometry width="50" height="50" relative="1" as="geometry">
            <mxPoint x="967" y="440" as="sourcePoint" />
            <mxPoint x="967" y="100" as="targetPoint" />
          </mxGeometry>
        </mxCell>
        <mxCell id="a6-csXQEDT_WiFzlH9FD-18" value="数据规范" style="rounded=0;whiteSpace=wrap;html=1;fillColor=#fff2cc;strokeColor=#d6b656;" parent="1" vertex="1">
          <mxGeometry x="790" y="475" width="110" height="50" as="geometry" />
        </mxCell>
        <mxCell id="a6-csXQEDT_WiFzlH9FD-19" value="文书服务" style="rounded=0;whiteSpace=wrap;html=1;fillColor=#b0e3e6;strokeColor=#0e8088;" parent="1" vertex="1">
          <mxGeometry x="180" y="290" width="100" height="50" as="geometry" />
        </mxCell>
        <mxCell id="a6-csXQEDT_WiFzlH9FD-20" value="案件" style="rounded=0;whiteSpace=wrap;html=1;" parent="1" vertex="1">
          <mxGeometry x="290" y="290" width="100" height="50" as="geometry" />
        </mxCell>
        <mxCell id="a6-csXQEDT_WiFzlH9FD-21" value="自由裁量权" style="rounded=0;whiteSpace=wrap;html=1;fillColor=#FF6666;" parent="1" vertex="1">
          <mxGeometry x="400" y="290" width="100" height="50" as="geometry" />
        </mxCell>
        <mxCell id="a6-csXQEDT_WiFzlH9FD-22" value="考试" style="rounded=0;whiteSpace=wrap;html=1;" parent="1" vertex="1">
          <mxGeometry x="510" y="290" width="100" height="50" as="geometry" />
        </mxCell>
        <mxCell id="a6-csXQEDT_WiFzlH9FD-23" value="评议考核" style="rounded=0;whiteSpace=wrap;html=1;" parent="1" vertex="1">
          <mxGeometry x="620" y="290" width="100" height="50" as="geometry" />
        </mxCell>
        <mxCell id="a6-csXQEDT_WiFzlH9FD-24" value="指挥调度" style="rounded=0;whiteSpace=wrap;html=1;" parent="1" vertex="1">
          <mxGeometry x="730" y="290" width="100" height="50" as="geometry" />
        </mxCell>
        <mxCell id="a6-csXQEDT_WiFzlH9FD-25" value="菜单管理" style="rounded=0;whiteSpace=wrap;html=1;fillColor=#FF6666;" parent="1" vertex="1">
          <mxGeometry x="840" y="290" width="100" height="50" as="geometry" />
        </mxCell>
        <mxCell id="a6-csXQEDT_WiFzlH9FD-27" value="" style="rounded=0;whiteSpace=wrap;html=1;" parent="1" vertex="1">
          <mxGeometry x="40" y="100" width="120" height="330" as="geometry" />
        </mxCell>
        <mxCell id="a6-csXQEDT_WiFzlH9FD-28" value="文件" style="rounded=0;whiteSpace=wrap;html=1;" parent="1" vertex="1">
          <mxGeometry x="50" y="182.5" width="70" height="30" as="geometry" />
        </mxCell>
        <mxCell id="a6-csXQEDT_WiFzlH9FD-29" value="接口" style="rounded=0;whiteSpace=wrap;html=1;" parent="1" vertex="1">
          <mxGeometry x="50" y="222.5" width="70" height="30" as="geometry" />
        </mxCell>
        <mxCell id="a6-csXQEDT_WiFzlH9FD-30" value="消息队列" style="rounded=0;whiteSpace=wrap;html=1;" parent="1" vertex="1">
          <mxGeometry x="50" y="262.5" width="70" height="30" as="geometry" />
        </mxCell>
        <mxCell id="a6-csXQEDT_WiFzlH9FD-34" value="" style="group" parent="1" vertex="1" connectable="0">
          <mxGeometry x="120" y="120" width="40" height="75" as="geometry" />
        </mxCell>
        <mxCell id="a6-csXQEDT_WiFzlH9FD-33" value="" style="rounded=0;whiteSpace=wrap;html=1;" parent="a6-csXQEDT_WiFzlH9FD-34" vertex="1">
          <mxGeometry x="5" width="30" height="75" as="geometry" />
        </mxCell>
        <mxCell id="a6-csXQEDT_WiFzlH9FD-32" value="接入控制" style="text;html=1;resizable=0;autosize=1;align=center;verticalAlign=middle;points=[];fillColor=none;strokeColor=none;rounded=0;horizontal=0;" parent="a6-csXQEDT_WiFzlH9FD-34" vertex="1">
          <mxGeometry y="7.5" width="40" height="60" as="geometry" />
        </mxCell>
        <mxCell id="a6-csXQEDT_WiFzlH9FD-35" value="" style="group" parent="1" vertex="1" connectable="0">
          <mxGeometry x="120" y="200" width="40" height="75" as="geometry" />
        </mxCell>
        <mxCell id="a6-csXQEDT_WiFzlH9FD-36" value="" style="rounded=0;whiteSpace=wrap;html=1;" parent="a6-csXQEDT_WiFzlH9FD-35" vertex="1">
          <mxGeometry x="5" width="30" height="75" as="geometry" />
        </mxCell>
        <mxCell id="a6-csXQEDT_WiFzlH9FD-37" value="数据质量" style="text;html=1;resizable=0;autosize=1;align=center;verticalAlign=middle;points=[];fillColor=none;strokeColor=none;rounded=0;horizontal=0;" parent="a6-csXQEDT_WiFzlH9FD-35" vertex="1">
          <mxGeometry y="7.5" width="40" height="60" as="geometry" />
        </mxCell>
        <mxCell id="a6-csXQEDT_WiFzlH9FD-38" value="数据接入/输出" style="text;html=1;resizable=0;autosize=1;align=center;verticalAlign=middle;points=[];fillColor=none;strokeColor=none;rounded=0;" parent="1" vertex="1">
          <mxGeometry x="50" y="400" width="100" height="30" as="geometry" />
        </mxCell>
        <mxCell id="a6-csXQEDT_WiFzlH9FD-39" value="报表导出" style="rounded=0;whiteSpace=wrap;html=1;" parent="1" vertex="1">
          <mxGeometry x="840" y="212.5" width="100" height="50" as="geometry" />
        </mxCell>
        <mxCell id="a6-csXQEDT_WiFzlH9FD-40" value="" style="rounded=0;whiteSpace=wrap;html=1;" parent="1" vertex="1">
          <mxGeometry x="980" y="100" width="120" height="330" as="geometry" />
        </mxCell>
        <mxCell id="a6-csXQEDT_WiFzlH9FD-41" value="" style="endArrow=none;dashed=1;html=1;rounded=0;" parent="1" edge="1">
          <mxGeometry width="50" height="50" relative="1" as="geometry">
            <mxPoint x="180" y="180" as="sourcePoint" />
            <mxPoint x="950" y="180" as="targetPoint" />
          </mxGeometry>
        </mxCell>
        <mxCell id="a6-csXQEDT_WiFzlH9FD-42" value="" style="group" parent="1" vertex="1" connectable="0">
          <mxGeometry x="120" y="280" width="40" height="75" as="geometry" />
        </mxCell>
        <mxCell id="a6-csXQEDT_WiFzlH9FD-43" value="" style="rounded=0;whiteSpace=wrap;html=1;" parent="a6-csXQEDT_WiFzlH9FD-42" vertex="1">
          <mxGeometry x="5" width="30" height="75" as="geometry" />
        </mxCell>
        <mxCell id="a6-csXQEDT_WiFzlH9FD-44" value="数据规范" style="text;html=1;resizable=0;autosize=1;align=center;verticalAlign=middle;points=[];fillColor=none;strokeColor=none;rounded=0;horizontal=0;" parent="a6-csXQEDT_WiFzlH9FD-42" vertex="1">
          <mxGeometry y="7.5" width="40" height="60" as="geometry" />
        </mxCell>
        <mxCell id="a6-csXQEDT_WiFzlH9FD-45" value="数据清洗服务" style="rounded=0;whiteSpace=wrap;html=1;fillColor=#fff2cc;strokeColor=#d6b656;" parent="1" vertex="1">
          <mxGeometry x="45" y="360" width="110" height="40" as="geometry" />
        </mxCell>
        <mxCell id="a6-csXQEDT_WiFzlH9FD-46" value="业务能力输出" style="text;html=1;resizable=0;autosize=1;align=center;verticalAlign=middle;points=[];fillColor=none;strokeColor=none;rounded=0;" parent="1" vertex="1">
          <mxGeometry x="990" y="400" width="100" height="30" as="geometry" />
        </mxCell>
        <mxCell id="a6-csXQEDT_WiFzlH9FD-47" value="可控RestApi" style="rounded=0;whiteSpace=wrap;html=1;" parent="1" vertex="1">
          <mxGeometry x="1000" y="142.5" width="70" height="30" as="geometry" />
        </mxCell>
        <mxCell id="a6-csXQEDT_WiFzlH9FD-48" value="页面能力嵌入" style="rounded=0;whiteSpace=wrap;html=1;" parent="1" vertex="1">
          <mxGeometry x="1000" y="182.5" width="70" height="30" as="geometry" />
        </mxCell>
        <mxCell id="a6-csXQEDT_WiFzlH9FD-49" value="用户" style="rounded=0;whiteSpace=wrap;html=1;" parent="1" vertex="1">
          <mxGeometry x="1000" y="222.5" width="70" height="30" as="geometry" />
        </mxCell>
        <mxCell id="a6-csXQEDT_WiFzlH9FD-50" value="组织架构" style="rounded=0;whiteSpace=wrap;html=1;" parent="1" vertex="1">
          <mxGeometry x="1000" y="262.5" width="70" height="30" as="geometry" />
        </mxCell>
        <mxCell id="a6-csXQEDT_WiFzlH9FD-51" value="外部设备调度" style="rounded=0;whiteSpace=wrap;html=1;" parent="1" vertex="1">
          <mxGeometry x="1000" y="300" width="70" height="30" as="geometry" />
        </mxCell>
        <mxCell id="a6-csXQEDT_WiFzlH9FD-52" value="OSS" style="rounded=0;whiteSpace=wrap;html=1;" parent="1" vertex="1">
          <mxGeometry x="727" y="212.5" width="100" height="50" as="geometry" />
        </mxCell>
        <mxCell id="a6-csXQEDT_WiFzlH9FD-53" value="消息通知（SMS/Mail/社交）" style="rounded=0;whiteSpace=wrap;html=1;" parent="1" vertex="1">
          <mxGeometry x="620" y="212.5" width="100" height="50" as="geometry" />
        </mxCell>
        <mxCell id="a6-csXQEDT_WiFzlH9FD-56" value="UI" style="rounded=0;whiteSpace=wrap;html=1;" parent="1" vertex="1">
          <mxGeometry x="180" y="100" width="770" height="60" as="geometry" />
        </mxCell>
        <mxCell id="a6-csXQEDT_WiFzlH9FD-59" value="。。。" style="rounded=0;whiteSpace=wrap;html=1;" parent="1" vertex="1">
          <mxGeometry x="190" y="212.5" width="390" height="50" as="geometry" />
        </mxCell>
      </root>
    </mxGraphModel>
  </diagram>
  <diagram id="DBfPnybLH8Cop9w9KJ8Y" name="第 3 页">
    <mxGraphModel dx="1186" dy="519" grid="1" gridSize="10" guides="1" tooltips="1" connect="1" arrows="1" fold="1" page="1" pageScale="1" pageWidth="827" pageHeight="1169" math="0" shadow="0">
      <root>
        <mxCell id="0" />
        <mxCell id="1" parent="0" />
        <mxCell id="0GNlF46BEiLHiTcUJK0O-2" value="检查对象" style="rounded=0;whiteSpace=wrap;html=1;" vertex="1" parent="1">
          <mxGeometry x="80" y="80" width="90" height="40" as="geometry" />
        </mxCell>
        <mxCell id="0GNlF46BEiLHiTcUJK0O-3" value="企业经营数据" style="rounded=0;whiteSpace=wrap;html=1;" vertex="1" parent="1">
          <mxGeometry x="80" y="130" width="90" height="40" as="geometry" />
        </mxCell>
        <mxCell id="0GNlF46BEiLHiTcUJK0O-4" value="" style="endArrow=none;dashed=1;html=1;dashPattern=1 3;strokeWidth=2;rounded=0;" edge="1" parent="1">
          <mxGeometry width="50" height="50" relative="1" as="geometry">
            <mxPoint x="190" y="330" as="sourcePoint" />
            <mxPoint x="190" y="50" as="targetPoint" />
          </mxGeometry>
        </mxCell>
        <mxCell id="0GNlF46BEiLHiTcUJK0O-5" value="" style="endArrow=none;dashed=1;html=1;dashPattern=1 3;strokeWidth=2;rounded=0;" edge="1" parent="1">
          <mxGeometry width="50" height="50" relative="1" as="geometry">
            <mxPoint x="560" y="320" as="sourcePoint" />
            <mxPoint x="560" y="40" as="targetPoint" />
          </mxGeometry>
        </mxCell>
        <mxCell id="0GNlF46BEiLHiTcUJK0O-6" value="检查档案" style="rounded=0;whiteSpace=wrap;html=1;" vertex="1" parent="1">
          <mxGeometry x="580" y="70" width="90" height="50" as="geometry" />
        </mxCell>
        <mxCell id="0GNlF46BEiLHiTcUJK0O-7" value="违法线索" style="rounded=0;whiteSpace=wrap;html=1;" vertex="1" parent="1">
          <mxGeometry x="580" y="130" width="90" height="50" as="geometry" />
        </mxCell>
        <mxCell id="0GNlF46BEiLHiTcUJK0O-8" value="告知承诺信息" style="rounded=0;whiteSpace=wrap;html=1;" vertex="1" parent="1">
          <mxGeometry x="80" y="180" width="90" height="40" as="geometry" />
        </mxCell>
        <mxCell id="0GNlF46BEiLHiTcUJK0O-9" value="交委GIS" style="rounded=0;whiteSpace=wrap;html=1;" vertex="1" parent="1">
          <mxGeometry x="80" y="240" width="90" height="40" as="geometry" />
        </mxCell>
        <mxCell id="0GNlF46BEiLHiTcUJK0O-10" value="检查计划" style="rounded=0;whiteSpace=wrap;html=1;" vertex="1" parent="1">
          <mxGeometry x="580" y="190" width="90" height="50" as="geometry" />
        </mxCell>
        <mxCell id="0GNlF46BEiLHiTcUJK0O-11" value="企业基础数据和运营信息" style="rounded=0;whiteSpace=wrap;html=1;" vertex="1" parent="1">
          <mxGeometry x="80" y="290" width="90" height="40" as="geometry" />
        </mxCell>
        <mxCell id="0GNlF46BEiLHiTcUJK0O-12" value="监管事项目录" style="rounded=0;whiteSpace=wrap;html=1;" vertex="1" parent="1">
          <mxGeometry x="80" y="340" width="90" height="40" as="geometry" />
        </mxCell>
        <mxCell id="0GNlF46BEiLHiTcUJK0O-13" value="监管对象" style="rounded=0;whiteSpace=wrap;html=1;" vertex="1" parent="1">
          <mxGeometry x="80" y="390" width="90" height="40" as="geometry" />
        </mxCell>
        <mxCell id="0GNlF46BEiLHiTcUJK0O-14" value="监管人员" style="rounded=0;whiteSpace=wrap;html=1;" vertex="1" parent="1">
          <mxGeometry x="80" y="440" width="90" height="40" as="geometry" />
        </mxCell>
        <mxCell id="0GNlF46BEiLHiTcUJK0O-15" value="移动电子政务平台" style="rounded=0;whiteSpace=wrap;html=1;" vertex="1" parent="1">
          <mxGeometry x="80" y="490" width="90" height="40" as="geometry" />
        </mxCell>
        <mxCell id="0GNlF46BEiLHiTcUJK0O-16" value="" style="shape=flexArrow;endArrow=classic;html=1;rounded=0;" edge="1" parent="1">
          <mxGeometry width="50" height="50" relative="1" as="geometry">
            <mxPoint x="80" y="50" as="sourcePoint" />
            <mxPoint x="150" y="50" as="targetPoint" />
          </mxGeometry>
        </mxCell>
        <mxCell id="0GNlF46BEiLHiTcUJK0O-17" value="" style="shape=flexArrow;endArrow=classic;html=1;rounded=0;" edge="1" parent="1">
          <mxGeometry width="50" height="50" relative="1" as="geometry">
            <mxPoint x="580" y="50" as="sourcePoint" />
            <mxPoint x="650" y="50" as="targetPoint" />
          </mxGeometry>
        </mxCell>
        <mxCell id="0GNlF46BEiLHiTcUJK0O-18" value="监管基础管理系统" style="rounded=0;whiteSpace=wrap;html=1;fillColor=#7EA6E0;" vertex="1" parent="1">
          <mxGeometry x="220" y="86" width="90" height="40" as="geometry" />
        </mxCell>
        <mxCell id="0GNlF46BEiLHiTcUJK0O-19" value="风险+信用”监管系统" style="rounded=0;whiteSpace=wrap;html=1;fillColor=#7EA6E0;" vertex="1" parent="1">
          <mxGeometry x="324" y="86" width="90" height="40" as="geometry" />
        </mxCell>
        <mxCell id="0GNlF46BEiLHiTcUJK0O-20" value="现场监管系统" style="rounded=0;whiteSpace=wrap;html=1;fillColor=#7EA6E0;" vertex="1" parent="1">
          <mxGeometry x="430" y="86" width="90" height="40" as="geometry" />
        </mxCell>
        <mxCell id="0GNlF46BEiLHiTcUJK0O-21" value="非现场监管系统" style="rounded=0;whiteSpace=wrap;html=1;fillColor=#FFFF33;" vertex="1" parent="1">
          <mxGeometry x="220" y="150" width="90" height="40" as="geometry" />
        </mxCell>
        <mxCell id="0GNlF46BEiLHiTcUJK0O-22" value="共治监管系统" style="rounded=0;whiteSpace=wrap;html=1;fillColor=#CCCCCC;" vertex="1" parent="1">
          <mxGeometry x="324" y="150" width="90" height="40" as="geometry" />
        </mxCell>
        <mxCell id="0GNlF46BEiLHiTcUJK0O-23" value="监督评价系统" style="rounded=0;whiteSpace=wrap;html=1;fillColor=#33FF33;" vertex="1" parent="1">
          <mxGeometry x="430" y="150" width="90" height="40" as="geometry" />
        </mxCell>
        <mxCell id="0GNlF46BEiLHiTcUJK0O-24" value="数据报送管理系统" style="rounded=0;whiteSpace=wrap;html=1;fillColor=#33FF33;" vertex="1" parent="1">
          <mxGeometry x="430" y="210" width="90" height="40" as="geometry" />
        </mxCell>
        <mxCell id="0GNlF46BEiLHiTcUJK0O-25" value="监管门户系统" style="rounded=0;whiteSpace=wrap;html=1;fillColor=#7EA6E0;" vertex="1" parent="1">
          <mxGeometry x="220" y="210" width="90" height="40" as="geometry" />
        </mxCell>
        <mxCell id="0GNlF46BEiLHiTcUJK0O-26" value="系统管理" style="rounded=0;whiteSpace=wrap;html=1;fillColor=#CCCCCC;" vertex="1" parent="1">
          <mxGeometry x="324" y="210" width="90" height="40" as="geometry" />
        </mxCell>
        <mxCell id="0GNlF46BEiLHiTcUJK0O-27" value="移动监管系统" style="rounded=0;whiteSpace=wrap;html=1;fillColor=#7EA6E0;" vertex="1" parent="1">
          <mxGeometry x="220" y="270" width="90" height="40" as="geometry" />
        </mxCell>
        <mxCell id="0GNlF46BEiLHiTcUJK0O-28" value="监管处置系统" style="rounded=0;whiteSpace=wrap;html=1;fillColor=#33FF33;" vertex="1" parent="1">
          <mxGeometry x="430" y="270" width="90" height="40" as="geometry" />
        </mxCell>
        <mxCell id="0GNlF46BEiLHiTcUJK0O-29" value="监管档案系统" style="rounded=0;whiteSpace=wrap;html=1;fillColor=#33FF33;" vertex="1" parent="1">
          <mxGeometry x="324" y="270" width="90" height="40" as="geometry" />
        </mxCell>
        <mxCell id="0GNlF46BEiLHiTcUJK0O-30" value="综合分析与展示系统" style="rounded=0;whiteSpace=wrap;html=1;fillColor=#33FF33;" vertex="1" parent="1">
          <mxGeometry x="430" y="330" width="90" height="40" as="geometry" />
        </mxCell>
        <mxCell id="0GNlF46BEiLHiTcUJK0O-31" value="信息资源库" style="rounded=0;whiteSpace=wrap;html=1;fillColor=#FFFF33;" vertex="1" parent="1">
          <mxGeometry x="220" y="330" width="90" height="40" as="geometry" />
        </mxCell>
      </root>
    </mxGraphModel>
  </diagram>
  <diagram id="ti53PuieP4yF84vN1ge8" name="第 4 页">
    <mxGraphModel dx="1666" dy="769" grid="1" gridSize="10" guides="1" tooltips="1" connect="1" arrows="1" fold="1" page="1" pageScale="1" pageWidth="827" pageHeight="1169" math="0" shadow="0">
      <root>
        <mxCell id="0" />
        <mxCell id="1" parent="0" />
        <mxCell id="StIEiGAoy4xTWWmsYsoo-26" value="" style="rounded=0;whiteSpace=wrap;html=1;fillColor=#FFFFFF;" vertex="1" parent="1">
          <mxGeometry x="150" y="650" width="640" height="320" as="geometry" />
        </mxCell>
        <mxCell id="XSfC1TV8U-NVpZENi2M1-6" style="rounded=0;orthogonalLoop=1;jettySize=auto;html=1;exitX=0.75;exitY=0.1;exitDx=0;exitDy=0;exitPerimeter=0;" edge="1" parent="1" source="XSfC1TV8U-NVpZENi2M1-1" target="XSfC1TV8U-NVpZENi2M1-4">
          <mxGeometry relative="1" as="geometry" />
        </mxCell>
        <mxCell id="XSfC1TV8U-NVpZENi2M1-15" style="edgeStyle=none;rounded=0;orthogonalLoop=1;jettySize=auto;html=1;exitX=1;exitY=1;exitDx=0;exitDy=0;exitPerimeter=0;" edge="1" parent="1" source="XSfC1TV8U-NVpZENi2M1-1" target="XSfC1TV8U-NVpZENi2M1-8">
          <mxGeometry relative="1" as="geometry" />
        </mxCell>
        <mxCell id="XSfC1TV8U-NVpZENi2M1-19" style="edgeStyle=none;rounded=0;orthogonalLoop=1;jettySize=auto;html=1;exitX=0;exitY=1;exitDx=0;exitDy=0;exitPerimeter=0;" edge="1" parent="1" source="XSfC1TV8U-NVpZENi2M1-1" target="XSfC1TV8U-NVpZENi2M1-16">
          <mxGeometry relative="1" as="geometry" />
        </mxCell>
        <mxCell id="XSfC1TV8U-NVpZENi2M1-24" style="edgeStyle=none;rounded=0;orthogonalLoop=1;jettySize=auto;html=1;exitX=0.5;exitY=0.5;exitDx=0;exitDy=0;exitPerimeter=0;entryX=0;entryY=0.5;entryDx=0;entryDy=0;" edge="1" parent="1" source="XSfC1TV8U-NVpZENi2M1-1" target="XSfC1TV8U-NVpZENi2M1-20">
          <mxGeometry relative="1" as="geometry" />
        </mxCell>
        <mxCell id="XSfC1TV8U-NVpZENi2M1-1" value="产品人员" style="shape=umlActor;verticalLabelPosition=bottom;verticalAlign=top;html=1;fillColor=#7EA6E0;" vertex="1" parent="1">
          <mxGeometry x="60" y="130" width="30" height="60" as="geometry" />
        </mxCell>
        <mxCell id="XSfC1TV8U-NVpZENi2M1-10" style="edgeStyle=none;rounded=0;orthogonalLoop=1;jettySize=auto;html=1;exitX=0.5;exitY=1;exitDx=0;exitDy=0;entryX=0.5;entryY=0;entryDx=0;entryDy=0;" edge="1" parent="1" source="XSfC1TV8U-NVpZENi2M1-4" target="XSfC1TV8U-NVpZENi2M1-8">
          <mxGeometry relative="1" as="geometry" />
        </mxCell>
        <mxCell id="XSfC1TV8U-NVpZENi2M1-4" value="收集文书模版需求&lt;br&gt;（以Word样式提供）" style="ellipse;whiteSpace=wrap;html=1;fillColor=#7EA6E0;" vertex="1" parent="1">
          <mxGeometry x="210" y="150" width="140" height="70" as="geometry" />
        </mxCell>
        <mxCell id="XSfC1TV8U-NVpZENi2M1-7" style="rounded=0;orthogonalLoop=1;jettySize=auto;html=1;exitX=0.25;exitY=0.1;exitDx=0;exitDy=0;exitPerimeter=0;" edge="1" parent="1" source="XSfC1TV8U-NVpZENi2M1-5" target="XSfC1TV8U-NVpZENi2M1-4">
          <mxGeometry relative="1" as="geometry" />
        </mxCell>
        <mxCell id="XSfC1TV8U-NVpZENi2M1-5" value="业务部门" style="shape=umlActor;verticalLabelPosition=bottom;verticalAlign=top;html=1;fillColor=#7EA6E0;" vertex="1" parent="1">
          <mxGeometry x="460" y="110" width="30" height="60" as="geometry" />
        </mxCell>
        <mxCell id="XSfC1TV8U-NVpZENi2M1-17" style="edgeStyle=none;rounded=0;orthogonalLoop=1;jettySize=auto;html=1;exitX=0.5;exitY=1;exitDx=0;exitDy=0;" edge="1" parent="1" source="XSfC1TV8U-NVpZENi2M1-8" target="XSfC1TV8U-NVpZENi2M1-16">
          <mxGeometry relative="1" as="geometry" />
        </mxCell>
        <mxCell id="XSfC1TV8U-NVpZENi2M1-8" value="模版制作&lt;br&gt;（必填项，带入项，交互方式）" style="ellipse;whiteSpace=wrap;html=1;fillColor=#7EA6E0;" vertex="1" parent="1">
          <mxGeometry x="220" y="280" width="140" height="70" as="geometry" />
        </mxCell>
        <mxCell id="XSfC1TV8U-NVpZENi2M1-12" value="" style="edgeStyle=none;rounded=0;orthogonalLoop=1;jettySize=auto;html=1;" edge="1" parent="1" source="XSfC1TV8U-NVpZENi2M1-11" target="XSfC1TV8U-NVpZENi2M1-8">
          <mxGeometry relative="1" as="geometry" />
        </mxCell>
        <mxCell id="XSfC1TV8U-NVpZENi2M1-18" style="edgeStyle=none;rounded=0;orthogonalLoop=1;jettySize=auto;html=1;exitX=0;exitY=1;exitDx=0;exitDy=0;exitPerimeter=0;entryX=1;entryY=0.614;entryDx=0;entryDy=0;entryPerimeter=0;" edge="1" parent="1" source="XSfC1TV8U-NVpZENi2M1-11" target="XSfC1TV8U-NVpZENi2M1-16">
          <mxGeometry relative="1" as="geometry" />
        </mxCell>
        <mxCell id="XSfC1TV8U-NVpZENi2M1-25" style="edgeStyle=none;rounded=0;orthogonalLoop=1;jettySize=auto;html=1;exitX=0;exitY=1;exitDx=0;exitDy=0;exitPerimeter=0;entryX=1;entryY=0.5;entryDx=0;entryDy=0;" edge="1" parent="1" source="XSfC1TV8U-NVpZENi2M1-11" target="XSfC1TV8U-NVpZENi2M1-20">
          <mxGeometry relative="1" as="geometry" />
        </mxCell>
        <mxCell id="XSfC1TV8U-NVpZENi2M1-29" style="edgeStyle=none;rounded=0;orthogonalLoop=1;jettySize=auto;html=1;exitX=1;exitY=1;exitDx=0;exitDy=0;exitPerimeter=0;" edge="1" parent="1" source="XSfC1TV8U-NVpZENi2M1-11" target="XSfC1TV8U-NVpZENi2M1-28">
          <mxGeometry relative="1" as="geometry" />
        </mxCell>
        <mxCell id="XSfC1TV8U-NVpZENi2M1-11" value="前端" style="shape=umlActor;verticalLabelPosition=bottom;verticalAlign=top;html=1;fillColor=#7EA6E0;" vertex="1" parent="1">
          <mxGeometry x="450" y="290" width="30" height="60" as="geometry" />
        </mxCell>
        <mxCell id="XSfC1TV8U-NVpZENi2M1-26" style="edgeStyle=none;rounded=0;orthogonalLoop=1;jettySize=auto;html=1;exitX=0.5;exitY=1;exitDx=0;exitDy=0;" edge="1" parent="1" source="XSfC1TV8U-NVpZENi2M1-16" target="XSfC1TV8U-NVpZENi2M1-20">
          <mxGeometry relative="1" as="geometry" />
        </mxCell>
        <mxCell id="XSfC1TV8U-NVpZENi2M1-16" value="模版上传管理&lt;br&gt;（CMS，模版编号，业务场景设置）" style="ellipse;whiteSpace=wrap;html=1;fillColor=#7EA6E0;" vertex="1" parent="1">
          <mxGeometry x="200" y="400" width="140" height="70" as="geometry" />
        </mxCell>
        <mxCell id="XSfC1TV8U-NVpZENi2M1-30" style="edgeStyle=none;rounded=0;orthogonalLoop=1;jettySize=auto;html=1;exitX=1;exitY=0.5;exitDx=0;exitDy=0;" edge="1" parent="1" source="XSfC1TV8U-NVpZENi2M1-20" target="XSfC1TV8U-NVpZENi2M1-28">
          <mxGeometry relative="1" as="geometry" />
        </mxCell>
        <mxCell id="XSfC1TV8U-NVpZENi2M1-20" value="模版迭代需求" style="ellipse;whiteSpace=wrap;html=1;fillColor=#7EA6E0;" vertex="1" parent="1">
          <mxGeometry x="200" y="510" width="140" height="70" as="geometry" />
        </mxCell>
        <mxCell id="XSfC1TV8U-NVpZENi2M1-31" style="edgeStyle=none;rounded=0;orthogonalLoop=1;jettySize=auto;html=1;exitX=0;exitY=0;exitDx=0;exitDy=0;" edge="1" parent="1" source="XSfC1TV8U-NVpZENi2M1-28" target="XSfC1TV8U-NVpZENi2M1-16">
          <mxGeometry relative="1" as="geometry" />
        </mxCell>
        <mxCell id="XSfC1TV8U-NVpZENi2M1-28" value="模版更新" style="ellipse;whiteSpace=wrap;html=1;fillColor=#7EA6E0;" vertex="1" parent="1">
          <mxGeometry x="440" y="510" width="140" height="70" as="geometry" />
        </mxCell>
        <mxCell id="StIEiGAoy4xTWWmsYsoo-3" value="" style="edgeStyle=none;rounded=0;orthogonalLoop=1;jettySize=auto;html=1;" edge="1" parent="1" source="StIEiGAoy4xTWWmsYsoo-1" target="StIEiGAoy4xTWWmsYsoo-2">
          <mxGeometry relative="1" as="geometry" />
        </mxCell>
        <mxCell id="StIEiGAoy4xTWWmsYsoo-1" value="发起案件流程" style="verticalLabelPosition=bottom;verticalAlign=top;html=1;shape=mxgraph.flowchart.on-page_reference;fillColor=#7EA6E0;" vertex="1" parent="1">
          <mxGeometry x="10" y="670" width="60" height="60" as="geometry" />
        </mxCell>
        <mxCell id="StIEiGAoy4xTWWmsYsoo-6" value="" style="edgeStyle=none;rounded=0;orthogonalLoop=1;jettySize=auto;html=1;" edge="1" parent="1" source="StIEiGAoy4xTWWmsYsoo-2" target="StIEiGAoy4xTWWmsYsoo-5">
          <mxGeometry relative="1" as="geometry" />
        </mxCell>
        <mxCell id="StIEiGAoy4xTWWmsYsoo-2" value="根据执法环节，筛选文书模版" style="whiteSpace=wrap;html=1;verticalAlign=top;fillColor=#7EA6E0;" vertex="1" parent="1">
          <mxGeometry x="170" y="670" width="120" height="60" as="geometry" />
        </mxCell>
        <mxCell id="StIEiGAoy4xTWWmsYsoo-8" value="" style="edgeStyle=none;rounded=0;orthogonalLoop=1;jettySize=auto;html=1;" edge="1" parent="1" source="StIEiGAoy4xTWWmsYsoo-5" target="StIEiGAoy4xTWWmsYsoo-7">
          <mxGeometry relative="1" as="geometry" />
        </mxCell>
        <mxCell id="StIEiGAoy4xTWWmsYsoo-5" value="模版加载（部分信息带入）" style="whiteSpace=wrap;html=1;verticalAlign=top;fillColor=#7EA6E0;" vertex="1" parent="1">
          <mxGeometry x="370" y="670" width="120" height="60" as="geometry" />
        </mxCell>
        <mxCell id="StIEiGAoy4xTWWmsYsoo-10" value="" style="edgeStyle=none;rounded=0;orthogonalLoop=1;jettySize=auto;html=1;" edge="1" parent="1" source="StIEiGAoy4xTWWmsYsoo-7" target="StIEiGAoy4xTWWmsYsoo-9">
          <mxGeometry relative="1" as="geometry" />
        </mxCell>
        <mxCell id="StIEiGAoy4xTWWmsYsoo-7" value="用户录入文书信息" style="whiteSpace=wrap;html=1;verticalAlign=top;fillColor=#7EA6E0;" vertex="1" parent="1">
          <mxGeometry x="570" y="670" width="120" height="60" as="geometry" />
        </mxCell>
        <mxCell id="StIEiGAoy4xTWWmsYsoo-12" style="edgeStyle=none;rounded=0;orthogonalLoop=1;jettySize=auto;html=1;exitX=0.5;exitY=1;exitDx=0;exitDy=0;" edge="1" parent="1" source="StIEiGAoy4xTWWmsYsoo-9" target="StIEiGAoy4xTWWmsYsoo-11">
          <mxGeometry relative="1" as="geometry" />
        </mxCell>
        <mxCell id="StIEiGAoy4xTWWmsYsoo-9" value="文书提交" style="whiteSpace=wrap;html=1;verticalAlign=top;fillColor=#7EA6E0;" vertex="1" parent="1">
          <mxGeometry x="570" y="780" width="120" height="60" as="geometry" />
        </mxCell>
        <mxCell id="StIEiGAoy4xTWWmsYsoo-13" style="edgeStyle=none;rounded=0;orthogonalLoop=1;jettySize=auto;html=1;exitX=1;exitY=0.5;exitDx=0;exitDy=0;exitPerimeter=0;entryX=1;entryY=0.5;entryDx=0;entryDy=0;" edge="1" parent="1" source="StIEiGAoy4xTWWmsYsoo-11" target="StIEiGAoy4xTWWmsYsoo-7">
          <mxGeometry relative="1" as="geometry">
            <Array as="points">
              <mxPoint x="750" y="920" />
              <mxPoint x="750" y="700" />
            </Array>
          </mxGeometry>
        </mxCell>
        <mxCell id="StIEiGAoy4xTWWmsYsoo-14" value="否" style="edgeLabel;html=1;align=center;verticalAlign=middle;resizable=0;points=[];" vertex="1" connectable="0" parent="StIEiGAoy4xTWWmsYsoo-13">
          <mxGeometry x="-0.8353" y="3" relative="1" as="geometry">
            <mxPoint as="offset" />
          </mxGeometry>
        </mxCell>
        <mxCell id="StIEiGAoy4xTWWmsYsoo-16" value="" style="edgeStyle=none;rounded=0;orthogonalLoop=1;jettySize=auto;html=1;" edge="1" parent="1" source="StIEiGAoy4xTWWmsYsoo-11" target="StIEiGAoy4xTWWmsYsoo-15">
          <mxGeometry relative="1" as="geometry" />
        </mxCell>
        <mxCell id="StIEiGAoy4xTWWmsYsoo-11" value="必填项交验" style="strokeWidth=2;html=1;shape=mxgraph.flowchart.decision;whiteSpace=wrap;fillColor=#7EA6E0;" vertex="1" parent="1">
          <mxGeometry x="580" y="870" width="100" height="100" as="geometry" />
        </mxCell>
        <mxCell id="StIEiGAoy4xTWWmsYsoo-18" value="" style="edgeStyle=none;rounded=0;orthogonalLoop=1;jettySize=auto;html=1;" edge="1" parent="1" source="StIEiGAoy4xTWWmsYsoo-15" target="StIEiGAoy4xTWWmsYsoo-17">
          <mxGeometry relative="1" as="geometry" />
        </mxCell>
        <mxCell id="StIEiGAoy4xTWWmsYsoo-15" value="文书生效" style="whiteSpace=wrap;html=1;fillColor=#7EA6E0;strokeWidth=2;" vertex="1" parent="1">
          <mxGeometry x="390" y="890" width="120" height="60" as="geometry" />
        </mxCell>
        <mxCell id="StIEiGAoy4xTWWmsYsoo-31" style="edgeStyle=none;rounded=0;orthogonalLoop=1;jettySize=auto;html=1;exitX=0.5;exitY=1;exitDx=0;exitDy=0;" edge="1" parent="1" source="StIEiGAoy4xTWWmsYsoo-17" target="StIEiGAoy4xTWWmsYsoo-30">
          <mxGeometry relative="1" as="geometry" />
        </mxCell>
        <mxCell id="StIEiGAoy4xTWWmsYsoo-17" value="案件结束" style="whiteSpace=wrap;html=1;fillColor=#7EA6E0;strokeWidth=2;" vertex="1" parent="1">
          <mxGeometry x="15" y="890" width="120" height="60" as="geometry" />
        </mxCell>
        <mxCell id="StIEiGAoy4xTWWmsYsoo-30" value="文书归档" style="strokeWidth=2;html=1;shape=mxgraph.flowchart.terminator;whiteSpace=wrap;fillColor=#FFFFFF;" vertex="1" parent="1">
          <mxGeometry x="25" y="1020" width="100" height="60" as="geometry" />
        </mxCell>
      </root>
    </mxGraphModel>
  </diagram>
</mxfile>
